<?xml version="1.0" standalone="no"?>
<!DOCTYPE svg PUBLIC "-//W3C//DTD SVG 20010904//EN"
 "http://www.w3.org/TR/2001/REC-SVG-20010904/DTD/svg10.dtd">
<svg version="1.0" xmlns="http://www.w3.org/2000/svg"
 width="1024.000000pt" height="1024.000000pt" viewBox="0 0 1024.000000 1024.000000"
 preserveAspectRatio="xMidYMid meet">

<g transform="translate(0.000000,1024.000000) scale(0.100000,-0.100000)"
fill="#000000" stroke="none">
<path d="M6349 6601 c-77 -25 -132 -76 -159 -148 -18 -50 -20 -78 -20 -371 0
-297 2 -320 21 -362 47 -104 127 -150 260 -150 71 0 93 4 136 25 87 44 127
113 139 238 l7 77 -82 0 c-44 0 -84 1 -88 3 -5 1 -11 -29 -14 -66 -7 -83 -26
-107 -91 -114 -56 -7 -95 23 -108 82 -14 60 -11 533 3 575 7 21 25 42 45 53
29 17 39 18 73 8 51 -15 73 -50 79 -126 l5 -60 82 -3 c80 -3 83 -2 89 22 6 27
-8 136 -24 177 -16 41 -71 98 -116 121 -45 23 -188 35 -237 19z"/>
<path d="M7699 6594 c-53 -16 -124 -79 -144 -128 -24 -57 -29 -148 -11 -208
21 -75 73 -130 216 -233 130 -93 160 -130 160 -194 0 -34 -6 -49 -29 -72 -25
-24 -38 -29 -80 -29 -71 0 -102 28 -109 98 l-5 52 -88 0 -89 0 0 -38 c0 -106
62 -205 155 -248 40 -19 67 -24 135 -24 96 0 163 24 212 76 73 78 92 215 45
315 -34 73 -72 111 -207 206 -63 45 -123 95 -132 111 -27 45 -24 117 6 147 67
67 160 28 173 -73 l6 -42 78 0 79 0 0 46 c0 148 -110 255 -260 253 -36 0 -86
-7 -111 -15z"/>
<path d="M4916 6592 c-3 -3 -6 -232 -6 -509 l0 -503 235 0 235 0 0 80 0 80
-140 0 -140 0 0 429 0 429 -89 0 c-49 0 -92 -2 -95 -6z"/>
<path d="M5464 6586 c-3 -8 -4 -191 -2 -408 5 -434 6 -445 70 -522 49 -60 116
-86 218 -86 104 0 168 26 222 89 61 71 63 91 63 536 l0 400 -87 3 -87 3 -3
-406 -3 -407 -34 -30 c-29 -26 -39 -29 -73 -24 -44 7 -82 29 -95 54 -4 9 -9
196 -11 415 l-3 397 -85 0 c-64 0 -86 -4 -90 -14z"/>
<path d="M7035 6588 c-8 -24 -34 -133 -60 -253 -14 -66 -39 -178 -55 -250 -16
-71 -41 -186 -55 -255 -14 -69 -30 -141 -34 -160 -5 -19 -12 -47 -15 -62 l-6
-28 88 0 88 0 20 98 19 97 118 2 c113 1 117 1 121 -20 3 -12 10 -47 16 -77 6
-30 13 -65 16 -77 4 -22 9 -23 89 -23 100 0 98 -3 66 121 -11 41 -54 229 -97
419 -42 190 -84 374 -93 409 l-16 63 -103 4 c-77 4 -104 1 -107 -8z m155 -459
c22 -112 40 -205 40 -206 0 -2 -40 -3 -89 -3 -80 0 -89 2 -85 18 2 9 19 100
39 201 34 175 42 207 51 198 2 -2 22 -96 44 -208z"/>
<path d="M2946 6532 c-2 -4 -41 -150 -85 -325 -45 -174 -119 -462 -165 -640
-47 -177 -109 -419 -140 -537 -30 -118 -82 -322 -115 -452 -34 -130 -61 -246
-61 -257 0 -20 5 -21 153 -21 l154 0 62 243 c35 133 105 404 156 602 51 198
114 441 140 540 179 683 211 816 202 839 -6 14 -26 16 -151 16 -80 0 -147 -3
-150 -8z"/>
<path d="M1843 5888 c-447 -453 -458 -465 -458 -498 0 -24 56 -85 373 -404
206 -207 379 -376 385 -376 20 0 197 184 197 204 0 12 -106 127 -271 292 -149
150 -269 277 -268 283 2 6 124 133 270 283 146 150 269 279 273 286 10 16
-180 212 -205 212 -10 0 -142 -126 -296 -282z"/>
<path d="M3393 6080 c-51 -49 -93 -97 -93 -107 0 -9 44 -62 98 -117 53 -56
175 -181 270 -279 95 -98 172 -182 170 -186 -2 -5 -124 -133 -273 -284 -148
-152 -271 -281 -274 -288 -5 -15 189 -209 210 -209 21 0 751 731 763 765 11
28 54 -20 -460 508 -178 182 -288 287 -300 287 -10 0 -61 -41 -111 -90z"/>
<path d="M5644 5355 c-2 -5 -35 -154 -73 -330 -38 -176 -84 -385 -102 -465
-17 -80 -34 -155 -37 -168 -4 -23 -4 -23 84 -20 l89 3 15 85 15 85 116 3 116
3 7 -41 c3 -22 11 -63 17 -90 l11 -50 87 0 88 0 -17 74 c-10 41 -60 262 -111
493 -51 230 -93 419 -94 420 -5 9 -208 6 -211 -2z m168 -527 l25 -127 -84 -3
c-64 -2 -83 0 -83 10 0 22 59 334 72 382 l12 45 17 -90 c10 -49 28 -147 41
-217z"/>
<path d="M6588 5062 l-3 -303 -115 301 -115 300 -92 0 -93 0 0 -495 0 -496 88
3 87 3 0 302 c0 166 3 299 7 295 4 -4 34 -81 66 -172 33 -91 81 -219 106 -285
25 -66 46 -126 46 -132 0 -10 25 -13 90 -13 l90 0 0 494 0 494 -80 4 -80 3 -2
-303z"/>
<path d="M7069 5345 c-5 -11 -31 -130 -59 -265 -28 -135 -55 -263 -60 -285
-16 -62 -90 -407 -90 -417 0 -4 37 -8 83 -8 l83 0 18 90 19 90 113 0 114 0 6
-27 c3 -16 10 -44 14 -63 4 -19 11 -47 14 -62 6 -28 7 -28 91 -28 47 0 85 2
85 4 0 3 -14 65 -30 138 -17 73 -62 275 -101 448 -39 173 -76 334 -81 358 -6
28 -15 42 -26 43 -9 0 -55 1 -101 2 -75 2 -85 0 -92 -18z m135 -324 c9 -51 25
-142 37 -202 12 -60 19 -112 16 -115 -6 -6 -156 -8 -162 -2 -2 2 2 33 10 68
24 108 65 334 65 355 1 44 20 -13 34 -104z"/>
<path d="M7604 5361 c-2 -3 -4 -227 -4 -498 l1 -493 84 0 84 0 3 153 c3 150 3
153 33 196 l29 44 29 -64 c15 -35 56 -124 89 -196 l62 -133 93 0 c84 0 92 2
86 18 -6 18 -124 278 -188 417 -55 119 -55 119 -38 151 108 208 203 394 203
401 0 4 -39 7 -87 6 -86 -1 -88 -2 -103 -30 -8 -16 -58 -117 -110 -223 l-95
-194 -3 221 -2 221 -81 4 c-44 2 -83 1 -85 -1z"/>
<path d="M8474 5355 c-2 -5 -13 -53 -24 -105 -11 -52 -26 -115 -31 -140 -13
-55 -62 -285 -94 -435 -30 -145 -54 -255 -60 -282 -5 -23 -4 -23 84 -23 l88 0
7 40 c3 22 11 63 17 90 l11 50 113 0 113 0 16 -69 c9 -39 16 -79 16 -90 0 -20
6 -21 90 -21 50 0 90 4 90 9 0 5 -15 74 -34 153 -34 142 -132 584 -166 748
l-17 85 -108 0 c-63 0 -109 -4 -111 -10z m156 -441 c22 -109 40 -203 40 -209
0 -6 -35 -10 -85 -10 -54 0 -85 4 -85 11 0 6 18 100 40 209 22 109 40 201 40
203 0 3 2 3 5 0 3 -3 23 -95 45 -204z"/>
<path d="M4890 5285 l0 -75 95 0 95 0 0 -420 0 -420 90 0 90 0 0 420 0 420 95
0 95 0 0 75 0 75 -280 0 -280 0 0 -75z"/>
<path d="M3983 4013 c-36 -7 -73 -59 -73 -102 0 -53 31 -88 106 -121 62 -28
81 -51 68 -84 -11 -27 -78 -21 -103 10 -40 51 -92 12 -56 -42 38 -58 146 -68
203 -19 23 20 27 31 27 73 0 42 -5 56 -29 81 -16 17 -51 38 -78 47 -64 21 -84
57 -49 85 32 26 45 24 74 -11 16 -19 35 -30 51 -30 32 0 34 22 6 67 -25 42
-80 59 -147 46z"/>
<path d="M4902 4009 c-57 -17 -72 -56 -72 -189 0 -139 14 -171 80 -191 77 -23
151 21 166 99 6 31 5 32 -27 32 -28 0 -36 -6 -49 -33 -11 -24 -23 -33 -45 -35
-46 -6 -55 17 -55 134 0 111 7 127 56 127 29 0 42 -14 51 -56 5 -24 10 -28 37
-25 29 3 31 5 28 38 -8 81 -83 125 -170 99z"/>
<path d="M7255 4006 c-63 -28 -70 -45 -70 -181 0 -144 11 -170 85 -194 59 -19
115 -1 147 48 20 30 23 46 23 140 0 89 -3 111 -20 139 -33 54 -104 75 -165 48z
m95 -66 c17 -17 20 -33 20 -113 0 -111 -14 -140 -63 -135 -44 4 -57 35 -57
136 0 75 2 85 25 107 29 30 49 31 75 5z"/>
<path d="M2600 3820 l0 -190 35 0 35 0 0 75 0 75 55 0 c54 0 55 0 55 30 0 30
0 30 -56 30 l-55 0 3 53 3 52 60 1 c60 1 60 1 63 32 l3 32 -100 0 -101 0 0
-190z"/>
<path d="M2882 3898 c-4 -146 4 -202 34 -238 49 -58 164 -47 198 19 13 23 16
63 16 181 l0 150 -35 0 -35 0 0 -149 c0 -163 -4 -175 -57 -169 -44 5 -53 36
-53 186 l0 132 -32 0 -33 0 -3 -112z"/>
<path d="M3230 3820 l0 -190 100 0 100 0 0 29 c0 28 -2 29 -65 36 l-65 7 0
154 0 154 -35 0 -35 0 0 -190z"/>
<path d="M3510 3820 l0 -190 101 0 100 0 -3 33 c-3 31 -4 32 -53 33 -27 0 -56
1 -62 2 -10 2 -13 41 -13 157 l0 155 -35 0 -35 0 0 -190z"/>
<path d="M4210 3975 c0 -34 1 -35 40 -35 l40 0 0 -155 0 -155 40 0 40 0 0 160
0 160 40 0 c38 0 40 2 40 30 l0 30 -120 0 -120 0 0 -35z"/>
<path d="M4566 3958 c-8 -29 -29 -107 -46 -173 -17 -66 -33 -128 -36 -137 -4
-15 1 -18 29 -18 37 0 47 12 47 56 0 23 3 24 59 24 l59 0 7 -40 c7 -39 8 -40
47 -40 33 0 39 3 34 17 -4 9 -11 37 -17 62 -6 25 -21 84 -34 131 -13 47 -28
104 -35 128 -11 41 -11 42 -55 42 l-44 0 -15 -52z m89 -160 c7 -27 6 -28 -30
-28 l-38 0 7 43 c4 23 12 60 19 82 l11 39 12 -54 c6 -30 15 -67 19 -82z"/>
<path d="M5157 3822 l1 -187 36 -3 36 -3 0 58 c0 52 11 83 30 83 3 0 21 -31
40 -70 l34 -70 43 0 44 0 -57 109 -58 108 52 82 52 81 -44 0 c-43 0 -44 0 -85
-71 -22 -40 -41 -76 -41 -80 0 -5 -4 -9 -10 -9 -6 0 -10 33 -10 80 l0 80 -32
0 -33 0 2 -188z"/>
<path d="M5640 3820 l0 -192 89 4 c72 2 93 7 111 23 35 31 50 78 50 157 0 91
-13 138 -46 169 -22 21 -37 24 -115 27 l-89 4 0 -192z m151 111 c22 -18 24
-27 24 -110 0 -102 -8 -118 -65 -123 l-35 -3 -3 128 -3 127 30 0 c16 0 39 -9
52 -19z"/>
<path d="M5980 3820 l0 -190 105 0 105 0 0 30 c0 33 -1 33 -85 34 l-50 1 -3
48 -3 47 60 0 61 0 0 35 0 34 -57 -2 -58 -2 0 45 0 45 68 3 c67 3 67 3 67 32
l0 30 -105 0 -105 0 0 -190z"/>
<path d="M6260 3998 c0 -7 21 -92 48 -190 l47 -178 46 0 45 0 29 113 c16 61
38 147 50 190 l23 77 -39 0 c-32 0 -39 -4 -44 -22 -34 -154 -58 -248 -64 -248
-4 0 -19 53 -35 118 -15 64 -30 125 -32 135 -6 20 -74 25 -74 5z"/>
<path d="M6620 3820 l0 -190 106 0 105 0 -3 33 c-2 17 -9 33 -15 33 -7 1 -38
2 -68 3 l-55 1 0 45 0 45 60 0 c60 0 60 0 60 30 0 28 -1 29 -57 32 l-58 3 -3
48 -3 47 70 0 71 0 0 30 0 30 -105 0 -105 0 0 -190z"/>
<path d="M6919 3845 c-1 -91 -2 -175 -2 -187 -1 -22 2 -23 101 -26 l102 -3 0
30 c0 30 0 30 -62 33 l-63 3 -3 158 -3 157 -34 0 -35 0 -1 -165z"/>
<path d="M7530 3820 l0 -190 35 0 35 0 0 65 0 65 56 0 c50 0 59 3 85 31 25 27
29 39 29 91 0 55 -3 63 -34 94 -33 33 -36 34 -120 34 l-86 0 0 -190z m150 110
c42 -42 13 -110 -46 -110 l-34 0 0 65 0 65 30 0 c17 0 39 -9 50 -20z"/>
<path d="M7860 3820 l0 -190 100 0 100 0 0 33 0 32 -65 -3 -65 -4 0 51 0 51
55 0 c54 0 55 0 55 30 0 30 -1 30 -55 30 l-55 0 0 51 0 51 65 -4 65 -3 0 33 0
32 -100 0 -100 0 0 -190z"/>
<path d="M8150 3820 l0 -190 40 0 40 0 0 70 c0 61 2 70 18 70 13 0 27 -21 49
-70 l31 -70 41 0 41 0 -18 38 c-58 113 -57 113 -35 131 42 33 54 87 33 148
-17 47 -56 63 -154 63 l-86 0 0 -190z m151 120 c14 -8 19 -21 19 -48 0 -47
-14 -62 -57 -62 l-33 0 0 60 c0 58 1 60 26 60 14 0 34 -5 45 -10z"/>
</g>
</svg>
